<svg width="120" height="36" viewBox="0 0 120 36" fill="none" xmlns="http://www.w3.org/2000/svg">
  <!-- R icon mark -->
  <path d="M8 4C5.79 4 4 5.79 4 8v20c0 2.21 1.79 4 4 4h20c2.21 0 4-1.79 4-4V8c0-2.21-1.79-4-4-4H8z" fill="#21897E"/>
  <path d="M11 25V11h7.8c1.87 0 3.33.5 4.38 1.49 1.05.99 1.58 2.36 1.58 4.11 0 1.16-.28 2.17-.84 3.03-.56.86-1.35 1.49-2.37 1.89L25 25h-3.2l-3.4-3.2H14V25h-3zm3-6.1h5.38c.96 0 1.71-.27 2.25-.8.54-.54.81-1.27.81-2.2 0-.93-.27-1.66-.81-2.18-.54-.53-1.29-.79-2.25-.79H14v5.97z" fill="white"/>
  <!-- Wordmark -->
  <text x="36" y="24" font-family="Inter, system-ui, sans-serif" font-size="18" font-weight="600" fill="#21897E" letter-spacing="-0.3">rispa</text>
</svg>
