<svg width="164" height="42" viewBox="0 0 164 42" fill="none" xmlns="http://www.w3.org/2000/svg">
  <!-- R-mark icon -->
  <rect width="42" height="42" rx="12" fill="#21897E"/>
  <path d="M11 30V12H21.635C24.2037 12 26.2037 12.6636 27.635 13.9907C29.0663 15.3178 29.782 17.1667 29.782 19.5374C29.782 21.1258 29.4012 22.5202 28.6398 23.7208C27.8902 24.9214 26.845 25.8107 25.5042 26.3888L30.6667 30H25.9737L21.3169 26.8056H15.3169V30H11ZM15.3169 22.8056H23.5212C24.9774 22.8056 26.0974 22.4283 26.8814 21.6738C27.6769 20.9077 28.0746 19.8473 28.0746 18.4925C28.0746 17.1378 27.6769 16.0947 26.8814 15.3635C26.0974 14.6323 24.9774 14.2667 23.5212 14.2667H15.3169V22.8056Z" fill="white"/>
  <circle cx="30" cy="12" r="4" fill="#0D2422"/>
  <!-- Wordmark "Rispa" using text for clarity -->
  <text x="54" y="26" font-family="Inter, 'Segoe UI', system-ui, sans-serif" font-size="19" font-weight="600" fill="#0D2422" letter-spacing="0.5">Rispa</text>
</svg>

